<svg width="126" height="40" viewBox="0 0 126 40" fill="none" xmlns="http://www.w3.org/2000/svg">
<path d="M79.4731 19.7647C79.4731 16.7579 81.8611 14.3203 84.8067 14.3203C87.7522 14.3203 90.1401 16.7579 90.1401 19.7647" stroke="black" stroke-width="1.53417" stroke-miterlimit="10"/>
<path d="M90.1403 25.6543C90.1403 28.6836 87.7524 31.1393 84.8068 31.1393" stroke="black" stroke-width="1.53417" stroke-miterlimit="10"/>
<path d="M78.0682 24.8795C75.7239 24.8795 73.8232 22.4915 73.8232 19.5459" stroke="black" stroke-width="1.53417" stroke-miterlimit="10"/>
<path d="M84.7954 24.9492C81.8561 24.9492 79.4731 22.5663 79.4731 19.627" stroke="black" stroke-width="1.53417" stroke-miterlimit="10"/>
<path d="M59.3469 19.6796C59.3469 16.7402 61.7297 14.3574 64.6692 14.3574C67.6084 14.3574 69.9913 16.7402 69.9913 19.6796" stroke="black" stroke-width="1.53417" stroke-miterlimit="10"/>
<path d="M59.3469 19.6367V25.6616" stroke="black" stroke-width="1.53417" stroke-miterlimit="10"/>
<path d="M69.9912 19.4937V25.6619" stroke="black" stroke-width="1.53417" stroke-miterlimit="10"/>
<path d="M110.706 18.5439V25.6545" stroke="black" stroke-width="1.53417" stroke-miterlimit="10"/>
<path d="M102.228 16.4229V25.6548" stroke="black" stroke-width="1.53417" stroke-miterlimit="10"/>
<path d="M93.7496 18.3638V25.6547" stroke="black" stroke-width="1.53417" stroke-miterlimit="10"/>
<path d="M73.8232 13.6226V19.7274" stroke="black" stroke-width="1.53417" stroke-miterlimit="10"/>
<path d="M120.106 25.002H118.881" stroke="black" stroke-width="1.53417" stroke-miterlimit="10"/>
<path d="M85.8817 24.9492H84.7302" stroke="black" stroke-width="1.53417" stroke-miterlimit="10"/>
<path d="M84.9148 31.1396H82.512" stroke="black" stroke-width="1.53417" stroke-miterlimit="10"/>
<path d="M90.1403 19.7124V25.8176" stroke="black" stroke-width="1.53417" stroke-miterlimit="10"/>
<path d="M113.6 19.8175C113.6 16.8106 115.988 14.373 118.933 14.373C121.879 14.373 124.267 16.8106 124.267 19.8175" stroke="black" stroke-width="1.53417" stroke-miterlimit="10"/>
<path d="M118.922 25.0019C115.983 25.0019 113.6 22.619 113.6 19.6797" stroke="black" stroke-width="1.53417" stroke-miterlimit="10"/>
<path d="M124.266 19.6797V25.7849" stroke="black" stroke-width="1.53417" stroke-miterlimit="10"/>
<path d="M93.7496 18.6324C93.7496 16.2574 95.6473 14.332 97.9887 14.332C100.33 14.332 102.228 16.2574 102.228 18.6324" stroke="black" stroke-width="1.53417" stroke-miterlimit="10"/>
<path d="M102.228 18.6108C102.228 16.2358 104.125 14.3105 106.467 14.3105C108.808 14.3105 110.706 16.2358 110.706 18.6108" stroke="black" stroke-width="1.53417" stroke-miterlimit="10"/>
<path fill-rule="evenodd" clip-rule="evenodd" d="M72.7462 11.15C72.7462 10.5696 73.2167 10.0991 73.7971 10.0991C74.3774 10.0991 74.8479 10.5696 74.8479 11.15C74.8479 11.7303 74.3774 12.2008 73.7971 12.2008C73.2167 12.2008 72.7462 11.7303 72.7462 11.15Z" fill="black"/>
<path d="M56.8064 20.2801L50.4875 20.272" stroke="black" stroke-width="1.53417" stroke-miterlimit="10"/>
<path d="M53.8161 24.9663H50.6499" stroke="black" stroke-width="1.53417" stroke-miterlimit="10"/>
<path d="M45.3984 19.7818C45.3984 16.7749 47.7864 14.3374 50.7319 14.3374C53.6773 14.3374 56.0408 16.5717 56.0408 19.5786" stroke="black" stroke-width="1.53417" stroke-miterlimit="10"/>
<path d="M50.7207 24.9657C47.7813 24.9657 45.3984 22.5829 45.3984 19.6436" stroke="black" stroke-width="1.53417" stroke-miterlimit="10"/>
<path d="M25.5396 15.4121L17.9206 10.7964L10.1636 15.4121L17.7974 19.808L25.5396 15.4121Z" fill="#E72E9D"/>
<path d="M18.0586 28.7715L25.7532 24.6728L25.9803 15.5347L17.9963 20.0233L18.0586 28.7715Z" fill="#20B1F9"/>
<path d="M18.038 28.9434L17.7281 20.008L10.017 15.564L9.70984 24.362L18.038 28.9434Z" fill="#095198"/>
<path d="M34.1069 29.6635V10.3335" stroke="black" stroke-width="0.932942" stroke-miterlimit="10"/>
<path d="M1.60095 29.6608V10.3359" stroke="black" stroke-width="0.932942" stroke-miterlimit="10"/>
<path d="M17.6234 38.9941L34.3227 29.2705" stroke="black" stroke-width="0.932942" stroke-miterlimit="10"/>
<path d="M1.37451 10.7329L18.0899 1" stroke="black" stroke-width="0.932942" stroke-miterlimit="10"/>
<path d="M18.0934 39L1.37793 29.2671" stroke="black" stroke-width="0.932942" stroke-miterlimit="10"/>
<path d="M17.8726 20.0422L33.9484 10.6816" stroke="black" stroke-width="0.932942" stroke-miterlimit="10"/>
<path d="M17.8272 20.0425L1.755 10.6841" stroke="black" stroke-width="0.932942" stroke-miterlimit="10"/>
<path d="M34.339 10.7371L17.6249 1.00488" stroke="black" stroke-width="0.932942" stroke-miterlimit="10"/>
<path d="M25.7545 24.8292V15.2622" stroke="black" stroke-width="0.932942" stroke-miterlimit="10"/>
<path d="M9.95386 24.8364V15.272" stroke="black" stroke-width="0.932942" stroke-miterlimit="10"/>
<path d="M17.9324 29.1254L25.9867 24.4355" stroke="black" stroke-width="0.932942" stroke-miterlimit="10"/>
<path d="M9.79517 15.5273L18.076 10.7056" stroke="black" stroke-width="0.932942" stroke-miterlimit="10"/>
<path d="M17.777 29.1263L9.72424 24.4375" stroke="black" stroke-width="0.932942" stroke-miterlimit="10"/>
<path d="M25.9095 15.5255L17.6285 10.7036" stroke="black" stroke-width="0.932942" stroke-miterlimit="10"/>
<path d="M18.4975 4.35491C18.4975 4.71272 18.2075 5.00278 17.8497 5.00278C17.4918 5.00278 17.2018 4.71272 17.2018 4.35491C17.2018 3.99709 17.4918 3.70703 17.8497 3.70703C18.2075 3.70703 18.4975 3.99709 18.4975 4.35491Z" fill="black"/>
<path d="M18.4975 7.60491C18.4975 7.96272 18.2075 8.25278 17.8497 8.25278C17.4918 8.25278 17.2018 7.96272 17.2018 7.60491C17.2018 7.24709 17.4918 6.95703 17.8497 6.95703C18.2075 6.95703 18.4975 7.24709 18.4975 7.60491Z" fill="black"/>
<path d="M5.16697 27.7406C5.16697 28.0985 4.87691 28.3885 4.51909 28.3885C4.16128 28.3885 3.87122 28.0985 3.87122 27.7406C3.87122 27.3829 4.16128 27.0928 4.51909 27.0928C4.87691 27.0928 5.16697 27.3829 5.16697 27.7406Z" fill="black"/>
<path d="M7.90378 26.2065C7.90378 26.5643 7.61372 26.8543 7.25591 26.8543C6.89809 26.8543 6.60803 26.5643 6.60803 26.2065C6.60803 25.8487 6.89809 25.5586 7.25591 25.5586C7.61372 25.5586 7.90378 25.8487 7.90378 26.2065Z" fill="black"/>
<path d="M31.8908 27.7201C31.8908 28.078 31.6008 28.368 31.243 28.368C30.8852 28.368 30.5951 28.078 30.5951 27.7201C30.5951 27.3623 30.8852 27.0723 31.243 27.0723C31.6008 27.0723 31.8908 27.3623 31.8908 27.7201Z" fill="black"/>
<path d="M29.1651 26.186C29.1651 26.5438 28.8751 26.8338 28.5173 26.8338C28.1594 26.8338 27.8694 26.5438 27.8694 26.186C27.8694 25.8282 28.1594 25.5381 28.5173 25.5381C28.8751 25.5381 29.1651 25.8282 29.1651 26.186Z" fill="black"/>
<path d="M17.8275 19.9678V38.849" stroke="black" stroke-width="0.932942" stroke-miterlimit="10"/>
</svg>
